<svg width="180" height="57" viewBox="0 0 180 57" fill="none" xmlns="http://www.w3.org/2000/svg">
<g id="Frame 2">
<g id="Group 3">
<path id="biblio" fill-rule="evenodd" clip-rule="evenodd" d="M49.8931 16.048V53.56H54.7891V16.048H49.8931ZM49.8931 1V8.2H54.7891V1H49.8931ZM40.296 45.712C41.064 44.08 41.448 42.304 41.448 40.384C41.448 37.264 40.584 34.528 38.856 32.176C37.176 29.824 34.872 28.216 31.944 27.352C34.248 26.296 36.048 24.712 37.344 22.6C38.64 20.44 39.288 18.064 39.288 15.472C39.288 13.888 39 12.328 38.424 10.792C37.896 9.208 37.128 7.816 36.12 6.616C35.112 5.368 33.888 4.36 32.448 3.592C31.008 2.824 29.4 2.44 27.624 2.44H3V53.56H27.12C29.088 53.56 30.936 53.248 32.664 52.624C34.392 51.952 35.904 51.04 37.2 49.888C38.496 48.688 39.528 47.296 40.296 45.712ZM35.76 35.92C36.192 37.072 36.408 38.272 36.408 39.52C36.408 40.768 36.168 41.992 35.688 43.192C35.208 44.344 34.536 45.376 33.672 46.288C32.856 47.152 31.872 47.848 30.72 48.376C29.616 48.904 28.416 49.168 27.12 49.168H8.04V35H8V24H8.04V6.832H26.04C27.24 6.832 28.344 7.096 29.352 7.624C30.36 8.104 31.224 8.776 31.944 9.64C32.712 10.456 33.288 11.44 33.672 12.592C34.104 13.744 34.32 14.968 34.32 16.264C34.32 17.512 34.104 18.712 33.672 19.864C33.24 20.968 32.64 21.952 31.872 22.816C31.104 23.68 30.168 24.376 29.064 24.904C29.0043 24.9338 28.9448 24.9638 28.885 24.9939C28.1672 25.3553 27.4184 25.7322 26 26.091V29.2188C28.2179 29.5665 30.3182 30.2485 31.08 30.664C32.184 31.192 33.12 31.912 33.888 32.824C34.704 33.688 35.328 34.72 35.76 35.92ZM83.9328 54.28C80.9568 54.28 78.2208 53.536 75.7248 52.048C73.2768 50.56 71.3568 48.64 69.9648 46.288V53.56H65.5728V1H70.4688V23.896C72.1488 21.352 74.1648 19.312 76.5168 17.776C78.8688 16.192 81.6048 15.4 84.7248 15.4C87.3648 15.4 89.7168 15.952 91.7808 17.056C93.8928 18.16 95.6688 19.648 97.1088 21.52C98.5968 23.344 99.7248 25.432 100.493 27.784C101.309 30.088 101.717 32.464 101.717 34.912C101.717 37.552 101.261 40.048 100.349 42.4C99.4368 44.752 98.1888 46.816 96.6048 48.592C95.0208 50.32 93.1248 51.712 90.9168 52.768C88.7568 53.776 86.4288 54.28 83.9328 54.28ZM82.7808 49.96C84.8448 49.96 86.7168 49.552 88.3968 48.736C90.1248 47.872 91.5888 46.744 92.7888 45.352C94.0368 43.912 94.9968 42.304 95.6688 40.528C96.3888 38.704 96.7488 36.832 96.7488 34.912C96.7488 32.944 96.4128 31.048 95.7408 29.224C95.1168 27.4 94.2048 25.792 93.0048 24.4C91.8528 22.96 90.4368 21.832 88.7568 21.016C87.1248 20.152 85.3248 19.72 83.3568 19.72C81.8688 19.72 80.4768 19.984 79.1808 20.512C77.8848 20.992 76.6848 21.664 75.5808 22.528C74.4768 23.392 73.4928 24.4 72.6288 25.552C71.7648 26.656 71.0448 27.832 70.4688 29.08V40.744C70.6608 42.04 71.1648 43.264 71.9808 44.416C72.8448 45.52 73.8528 46.48 75.0048 47.296C76.2048 48.112 77.4768 48.76 78.8208 49.24C80.2128 49.72 81.5328 49.96 82.7808 49.96ZM115.122 1H110.226V46.72C110.226 49.024 110.874 50.824 112.17 52.12C113.466 53.368 115.242 53.992 117.498 53.992C118.458 53.992 119.586 53.872 120.882 53.632C122.226 53.392 123.354 53.08 124.266 52.696L123.402 48.736C122.778 48.976 122.106 49.168 121.386 49.312C120.666 49.456 120.042 49.528 119.514 49.528C118.122 49.528 117.042 49.144 116.274 48.376C115.506 47.56 115.122 46.456 115.122 45.064V1ZM129.628 53.56V16.048H134.524V53.56H129.628ZM129.628 8.2V1H134.524V8.2H129.628ZM153.803 52.768C156.059 53.776 158.555 54.28 161.291 54.28C164.027 54.28 166.523 53.776 168.779 52.768C171.083 51.712 173.051 50.296 174.683 48.52C176.363 46.744 177.659 44.68 178.571 42.328C179.483 39.976 179.939 37.504 179.939 34.912C179.939 32.272 179.459 29.776 178.499 27.424C177.587 25.072 176.291 23.008 174.611 21.232C172.979 19.456 171.011 18.04 168.707 16.984C166.451 15.928 163.979 15.4 161.291 15.4C158.603 15.4 156.131 15.928 153.875 16.984C151.619 18.04 149.651 19.456 147.971 21.232C146.339 23.008 145.043 25.072 144.083 27.424C143.171 29.776 142.715 32.272 142.715 34.912C142.715 37.504 143.171 39.976 144.083 42.328C144.995 44.68 146.267 46.744 147.899 48.52C149.579 50.296 151.547 51.712 153.803 52.768ZM148.763 40.888C148.043 39.064 147.683 37.096 147.683 34.984C147.683 32.872 148.043 30.904 148.763 29.08C149.483 27.208 150.467 25.576 151.715 24.184C152.963 22.792 154.403 21.712 156.035 20.944C157.667 20.128 159.419 19.72 161.291 19.72C163.163 19.72 164.915 20.128 166.547 20.944C168.227 21.712 169.691 22.792 170.939 24.184C172.187 25.528 173.171 27.136 173.891 29.008C174.611 30.832 174.971 32.776 174.971 34.84C174.971 36.952 174.611 38.92 173.891 40.744C173.171 42.568 172.187 44.176 170.939 45.568C169.691 46.912 168.227 47.992 166.547 48.808C164.915 49.576 163.163 49.96 161.291 49.96C159.419 49.96 157.643 49.576 155.963 48.808C154.331 48.04 152.891 46.984 151.643 45.64C150.443 44.248 149.483 42.664 148.763 40.888Z" fill="black"/>
<path id="hardback" d="M5 0V56.5" stroke="black" stroke-width="10"/>
</g>
</g>
</svg>
