<?xml version="1.0" encoding="UTF-8"?>
<!-- Generator: Adobe Illustrator 23.0.0, SVG Export Plug-In . SVG Version: 6.00 Build 0)  -->
<svg width="24px" height="24px" enable-background="new 0 0 24 24" version="1.1" viewBox="0 0 24 24" xml:space="preserve" xmlns="http://www.w3.org/2000/svg">
<g id="Bounding_Box" transform="matrix(.73677 0 0 1 3.1381 0)">
	<rect width="24" height="24" style="fill:none"/>
</g>

<rect x="11.085" y="2.9492" width="0" height="18.915"/><g transform="translate(-.19887 -.44194)"><g transform="matrix(0 -.73689 -.72353 0 20.985 19.925)"><path id="logo-top" d="m20.47 4.9429c-1.11-0.35-2.33-0.5-3.5-0.5-1.95 0-4.6631 0.75036-6.1131 1.8504 0 2-0.12214 12.555-0.0292 15.325 1.35-0.85 4.4423-1.6752 6.1423-1.6752 1.65 0 3.35 0.3 4.75 1.05 0.1 0.05 0.15 0.05 0.25 0.05 0.25 0 0.5-0.25 0.5-0.5v-14.6c-0.6-0.45-1.25-0.75-2-1zm0 13.5c-1.1-0.35-2.3-0.5-3.5-0.5-1.7 0-4.3061 0.4843-5.6561 1.3343l0.0041-11.057c1.35-0.85 3.952-1.7777 5.652-1.7777 1.2 0 2.4 0.15 3.5 0.5z"/><path d="m17.5 10.5c0.88 0 1.73 0.09 2.5 0.26v-1.52c-0.79-0.15-1.64-0.24-2.5-0.24-1.7 0-3.24 0.29-4.5 0.83v1.66c1.13-0.64 2.7-0.99 4.5-0.99z"/><path d="m13 12.49v1.66c1.13-0.64 2.7-0.99 4.5-0.99 0.88 0 1.73 0.09 2.5 0.26v-1.52c-0.79-0.15-1.64-0.24-2.5-0.24-1.7 0-3.24 0.3-4.5 0.83z"/><path d="m17.5 14.33c-1.7 0-3.24 0.29-4.5 0.83v1.66c1.13-0.64 2.7-0.99 4.5-0.99 0.88 0 1.73 0.09 2.5 0.26v-1.52c-0.79-0.16-1.64-0.24-2.5-0.24z"/></g><g transform="matrix(0 .73689 -.72353 0 21.026 3.5338)"><path d="m21 5c-1.11-0.35-2.33-0.5-3.5-0.5-1.95 0-4.7892 0.85024-6.2392 1.9502 0 2 0.16836 12.444 0.15528 15.225 1.35-0.85 4.3839-1.6752 6.0839-1.6752 1.65 0 3.35 0.3 4.75 1.05 0.1 0.05 0.15 0.05 0.25 0.05 0.25 0 0.5-0.25 0.5-0.5v-14.6c-0.6-0.45-1.25-0.75-2-1zm0 13.5c-1.1-0.35-2.3-0.5-3.5-0.5-1.7 0-4.3721 0.67986-5.7221 1.5299l0.028017-11.381c1.35-0.85 3.9941-1.6493 5.6941-1.6493 1.2 0 2.4 0.15 3.5 0.5z"/><path d="m17.5 10.5c0.88 0 1.73 0.09 2.5 0.26v-1.52c-0.79-0.15-1.64-0.24-2.5-0.24-1.7 0-3.24 0.29-4.5 0.83v1.66c1.13-0.64 2.7-0.99 4.5-0.99z"/><path d="m13 12.49v1.66c1.13-0.64 2.7-0.99 4.5-0.99 0.88 0 1.73 0.09 2.5 0.26v-1.52c-0.79-0.15-1.64-0.24-2.5-0.24-1.7 0-3.24 0.3-4.5 0.83z"/><path d="m17.5 14.33c-1.7 0-3.24 0.29-4.5 0.83v1.66c1.13-0.64 2.7-0.99 4.5-0.99 0.88 0 1.73 0.09 2.5 0.26v-1.52c-0.79-0.16-1.64-0.24-2.5-0.24z"/></g></g></svg>
